<svg xmlns="http://www.w3.org/2000/svg" width="120" height="28" viewBox="0 0 100 23" fill="none">
  <path d="M42.2553 16.9927H34.6772C34.5778 16.9927 34.4972 16.9122 34.4972 16.8127V13.0745C34.4972 12.9751 34.5778 12.8945 34.6772 12.8945H41.7109C41.8103 12.8945 41.8909 12.814 41.8909 12.7146V8.83302C41.8909 8.73358 41.8103 8.65302 41.7109 8.65302H34.6772C34.5778 8.65302 34.4972 8.57247 34.4972 8.47303V5.4798C34.4972 5.38036 34.5778 5.2998 34.6772 5.2998H42.0548C42.1542 5.2998 42.2348 5.21925 42.2348 5.11981V0.579408C42.2348 0.479967 42.1542 0.399414 42.0548 0.399414H28.5736C28.4741 0.399414 28.3936 0.479967 28.3936 0.579408V21.7115C28.3936 21.8109 28.4741 21.8915 28.5736 21.8915H42.2553C42.3548 21.8915 42.4353 21.8109 42.4353 21.7115V17.1711C42.4353 17.0716 42.3548 16.9911 42.2553 16.9911V16.9927Z" fill="#000000"/>
  <path d="M84.124 10.1724H73.4721C73.3727 10.1724 73.2921 10.253 73.2921 10.3524V13.6895C73.2921 13.789 73.3727 13.8695 73.4721 13.8695H78.1825C78.3197 13.8695 78.407 14.0167 78.3403 14.1367C77.522 15.6217 76.0904 16.6528 74.2293 16.9228C70.7994 17.4205 67.7195 14.7039 67.6762 11.238C67.6345 7.89584 69.8817 5.44482 73.0916 5.44482C75.1337 5.44482 76.7665 6.537 77.4292 7.92196C77.4586 7.98362 77.5209 8.02362 77.5898 8.02362H83.7701C83.8901 8.02362 83.9779 7.90751 83.944 7.79251C82.4985 2.88935 78.1403 0 72.9488 0C68.1629 0 64.378 2.44436 62.6186 6.17146C60.9398 2.6338 57.2849 0.401098 52.1078 0.401098H44.6081C44.5087 0.401098 44.4281 0.48165 44.4281 0.581091V21.7132C44.4281 21.8126 44.5087 21.8931 44.6081 21.8931H52.1367C57.2727 21.8931 60.9298 19.6466 62.6136 16.05C64.3869 19.8182 68.2284 22.2942 73.0927 22.2942C79.368 22.2942 84.354 17.5377 84.354 11.1474C84.354 10.9235 84.319 10.578 84.304 10.3413C84.2979 10.2469 84.2195 10.173 84.1245 10.173L84.124 10.1724ZM51.9923 16.3906H50.5101C50.4107 16.3906 50.3301 16.31 50.3301 16.2106V5.96758C50.3301 5.86814 50.4107 5.78758 50.5101 5.78758H51.964C55.7749 5.78758 57.4943 8.02251 57.4943 11.1174C57.4943 14.2123 55.8038 16.39 51.9923 16.39V16.3906Z" fill="#000000"/>
  <path d="M99.8199 16.9927H92.2419C92.1424 16.9927 92.0619 16.9122 92.0619 16.8127V13.0745C92.0619 12.9751 92.1424 12.8945 92.2419 12.8945H99.2755C99.375 12.8945 99.4555 12.814 99.4555 12.7146V8.83302C99.4555 8.73358 99.375 8.65302 99.2755 8.65302H92.2419C92.1424 8.65302 92.0619 8.57247 92.0619 8.47303V5.4798C92.0619 5.38036 92.1424 5.2998 92.2419 5.2998H99.6194C99.7188 5.2998 99.7994 5.21925 99.7994 5.11981V0.579408C99.7994 0.479967 99.7188 0.399414 99.6194 0.399414H86.1571C86.0476 0.399414 85.9587 0.4883 85.9587 0.597741V21.8909H99.9999V17.1705C99.9999 17.0711 99.9194 16.9905 99.8199 16.9905V16.9927Z" fill="#000000"/>
</svg>
